name Walk10.mot
datacolumns 19
datarows 15
range 1.51400000 1.52800000
endheader

                time	   L_ground_force_vx	   L_ground_force_vy	   L_ground_force_vz	   L_ground_force_px	   L_ground_force_py	   L_ground_force_pz	   R_ground_force_vx	   R_ground_force_vy	   R_ground_force_vz	   R_ground_force_px	   R_ground_force_py	   R_ground_force_pz	   L_ground_torque_x	   L_ground_torque_y	   L_ground_torque_z	   R_ground_torque_x	   R_ground_torque_y	   R_ground_torque_z	
          1.51400000	         31.58485678	        634.69585953	         36.22406016	         -0.13217585	          0.00000000	         -0.03961787	         -0.01335954	          0.09723159	         -0.00348498	          0.00017513	          0.00000000	          0.00004609	          0.00000000	         -1.46054757	          0.00000000	          0.00000000	         -0.00010129	          0.00000000	
          1.51500000	         31.54921398	        634.75175265	         36.44263921	         -0.13143185	          0.00000000	         -0.03967783	         -0.01523115	          0.10776098	         -0.00375104	          0.00018794	          0.00000000	          0.00004943	          0.00000000	         -1.44977721	          0.00000000	          0.00000000	         -0.00011392	          0.00000000	
          1.51600000	         31.50491603	        634.81434630	         36.66115943	         -0.13068210	          0.00000000	         -0.03973798	         -0.01721378	          0.11882377	         -0.00402634	          0.00020116	          0.00000000	          0.00005287	          0.00000000	         -1.43893639	          0.00000000	          0.00000000	         -0.00012725	          0.00000000	
          1.51700000	         31.45298452	        634.88544686	         36.87943750	         -0.12992718	          0.00000000	         -0.03979826	         -0.01930956	          0.13042385	         -0.00431059	          0.00021478	          0.00000000	          0.00005642	          0.00000000	         -1.42804683	          0.00000000	          0.00000000	         -0.00014129	          0.00000000	
          1.51800000	         31.39446757	        634.96687011	         37.09729695	         -0.12916767	          0.00000000	         -0.03985862	         -0.02152034	          0.14256321	         -0.00460344	          0.00022877	          0.00000000	          0.00006006	          0.00000000	         -1.41712975	          0.00000000	          0.00000000	         -0.00015606	          0.00000000	
          1.51900000	         31.33043645	        635.06043624	         37.31456868	         -0.12840414	          0.00000000	         -0.03991898	         -0.02384768	          0.15524186	         -0.00490450	          0.00024312	          0.00000000	          0.00006379	          0.00000000	         -1.40620596	          0.00000000	          0.00000000	         -0.00017155	          0.00000000	
          1.52000000	         31.26198194	        635.16796594	         37.53109126	         -0.12763719	          0.00000000	         -0.03997930	         -0.02629280	          0.16845754	         -0.00521329	          0.00025781	          0.00000000	          0.00006761	          0.00000000	         -1.39529584	          0.00000000	          0.00000000	         -0.00018777	          0.00000000	
          1.52100000	         31.19021052	        635.29127761	         37.74671135	         -0.12686743	          0.00000000	         -0.04003951	         -0.02885655	          0.18220557	         -0.00552923	          0.00027279	          0.00000000	          0.00007150	          0.00000000	         -1.38441915	          0.00000000	          0.00000000	         -0.00020473	          0.00000000	
          1.52200000	         31.11624060	        635.43218535	         37.96128425	         -0.12609546	          0.00000000	         -0.04009956	         -0.03153936	          0.19647864	         -0.00585170	          0.00028803	          0.00000000	          0.00007545	          0.00000000	         -1.37359481	          0.00000000	          0.00000000	         -0.00022241	          0.00000000	
          1.52300000	         31.04119854	        635.59249737	         38.17467451	         -0.12532187	          0.00000000	         -0.04015941	         -0.03434121	          0.21126660	         -0.00617997	          0.00030350	          0.00000000	          0.00007947	          0.00000000	         -1.36284056	          0.00000000	          0.00000000	         -0.00024082	          0.00000000	
          1.52400000	         30.96621488	        635.77401404	         38.38675657	         -0.12454729	          0.00000000	         -0.04021900	         -0.03726160	          0.22655622	         -0.00651322	          0.00031916	          0.00000000	          0.00008352	          0.00000000	         -1.35217254	          0.00000000	          0.00000000	         -0.00025995	          0.00000000	
          1.52500000	         30.89242047	        635.97852464	         38.59741535	         -0.12377231	          0.00000000	         -0.04027829	         -0.04029948	          0.24233098	         -0.00685053	          0.00033496	          0.00000000	          0.00008761	          0.00000000	         -1.34160499	          0.00000000	          0.00000000	         -0.00027978	          0.00000000	
          1.52600000	         30.82094280	        636.20780232	         38.80654673	         -0.12299755	          0.00000000	         -0.04033723	         -0.04345322	          0.25857079	         -0.00719090	          0.00035083	          0.00000000	          0.00009172	          0.00000000	         -1.33114984	          0.00000000	          0.00000000	         -0.00030030	          0.00000000	
          1.52700000	         30.75290258	        636.46359714	         39.01405802	         -0.12222361	          0.00000000	         -0.04039578	         -0.04672056	          0.27525182	         -0.00753321	          0.00036674	          0.00000000	          0.00009583	          0.00000000	         -1.32081640	          0.00000000	          0.00000000	         -0.00032148	          0.00000000	
          1.52800000	         30.68941057	        636.74762796	         39.21986841	         -0.12145108	          0.00000000	         -0.04045389	         -0.05009857	          0.29234617	         -0.00787620	          0.00038261	          0.00000000	          0.00009993	          0.00000000	         -1.31061112	          0.00000000	          0.00000000	         -0.00034330	          0.00000000	
